<svg xmlns="http://www.w3.org/2000/svg" viewBox="0, 0, 400,230.76923076923077">
  <g>
    <path d="M138.950 21.233 L 138.950 42.465 211.349 42.469 C 251.169 42.470,283.788 42.511,283.836 42.559 C 283.884 42.607,241.697 84.888,190.086 136.517 C 138.476 188.146,96.249 230.484,96.249 230.601 C 96.249 230.730,143.349 230.814,216.734 230.814 L 337.219 230.814 337.219 197.576 L 337.219 164.339 287.190 164.313 C 259.674 164.298,237.343 164.238,237.565 164.180 C 237.787 164.122,237.969 163.926,237.969 163.745 C 237.969 163.564,238.125 163.416,238.315 163.416 C 238.505 163.416,238.661 163.317,238.661 163.196 C 238.661 162.909,239.770 161.800,240.057 161.800 C 240.178 161.800,240.277 161.645,240.277 161.454 C 240.277 161.264,240.433 161.108,240.623 161.108 C 240.814 161.108,240.969 161.009,240.969 160.888 C 240.969 160.601,242.078 159.492,242.365 159.492 C 242.486 159.492,242.585 159.336,242.585 159.146 C 242.585 158.956,242.741 158.800,242.931 158.800 C 243.122 158.800,243.278 158.701,243.278 158.579 C 243.278 158.293,244.387 157.184,244.673 157.184 C 244.794 157.184,244.893 157.028,244.893 156.838 C 244.893 156.647,245.049 156.492,245.239 156.492 C 245.430 156.492,245.586 156.392,245.586 156.271 C 245.586 155.985,246.695 154.876,246.981 154.876 C 247.102 154.876,247.201 154.720,247.201 154.530 C 247.201 154.339,247.357 154.183,247.548 154.183 C 247.738 154.183,247.894 154.084,247.894 153.963 C 247.894 153.677,249.003 152.568,249.289 152.568 C 249.410 152.568,249.510 152.412,249.510 152.222 C 249.510 152.031,249.665 151.875,249.856 151.875 C 250.046 151.875,250.202 151.776,250.202 151.655 C 250.202 151.369,251.311 150.260,251.597 150.260 C 251.719 150.260,251.818 150.104,251.818 149.913 C 251.818 149.723,251.973 149.567,252.164 149.567 C 252.354 149.567,252.510 149.468,252.510 149.347 C 252.510 149.061,253.619 147.952,253.905 147.952 C 254.027 147.952,254.126 147.796,254.126 147.605 C 254.126 147.415,254.282 147.259,254.472 147.259 C 254.662 147.259,254.818 147.160,254.818 147.039 C 254.818 146.752,255.927 145.643,256.214 145.643 C 256.335 145.643,256.434 145.488,256.434 145.297 C 256.434 145.107,256.590 144.951,256.780 144.951 C 256.971 144.951,257.126 144.852,257.126 144.731 C 257.126 144.444,258.235 143.335,258.522 143.335 C 258.643 143.335,258.742 143.179,258.742 142.989 C 258.742 142.799,258.898 142.643,259.088 142.643 C 259.279 142.643,259.435 142.544,259.435 142.422 C 259.435 142.136,260.544 141.027,260.830 141.027 C 260.951 141.027,261.050 140.871,261.050 140.681 C 261.050 140.490,261.206 140.335,261.396 140.335 C 261.587 140.335,261.743 140.236,261.743 140.114 C 261.743 139.993,262.007 139.630,262.330 139.307 C 262.653 138.983,263.017 138.719,263.138 138.719 C 263.259 138.719,263.358 138.563,263.358 138.373 C 263.358 138.182,263.514 138.027,263.705 138.027 C 263.895 138.027,264.051 137.927,264.051 137.806 C 264.051 137.520,265.160 136.411,265.446 136.411 C 265.567 136.411,265.666 136.255,265.666 136.065 C 265.666 135.874,265.822 135.718,266.013 135.718 C 266.203 135.718,266.359 135.619,266.359 135.498 C 266.359 135.212,267.468 134.103,267.754 134.103 C 267.875 134.103,267.975 133.947,267.975 133.756 C 267.975 133.566,268.130 133.410,268.321 133.410 C 268.511 133.410,268.667 133.311,268.667 133.190 C 268.667 132.904,269.776 131.795,270.062 131.795 C 270.184 131.795,270.283 131.639,270.283 131.448 C 270.283 131.258,270.439 131.102,270.629 131.102 C 270.819 131.102,270.975 131.003,270.975 130.882 C 270.975 130.761,271.240 130.397,271.563 130.074 C 271.886 129.751,272.249 129.486,272.371 129.486 C 272.492 129.486,272.591 129.331,272.591 129.140 C 272.591 128.950,272.747 128.794,272.937 128.794 C 273.128 128.794,273.283 128.695,273.283 128.574 C 273.283 128.287,274.392 127.178,274.679 127.178 C 274.800 127.178,274.899 127.023,274.899 126.832 C 274.899 126.642,275.055 126.486,275.245 126.486 C 275.436 126.486,275.591 126.387,275.591 126.266 C 275.591 125.979,276.701 124.870,276.987 124.870 C 277.108 124.870,277.207 124.714,277.207 124.524 C 277.207 124.334,277.363 124.178,277.553 124.178 C 277.744 124.178,277.900 124.079,277.900 123.957 C 277.900 123.836,278.164 123.473,278.487 123.150 C 278.810 122.826,279.174 122.562,279.295 122.562 C 279.416 122.562,279.515 122.406,279.515 122.216 C 279.515 122.025,279.671 121.870,279.862 121.870 C 280.052 121.870,280.208 121.770,280.208 121.649 C 280.208 121.528,280.472 121.165,280.795 120.841 C 281.118 120.518,281.482 120.254,281.603 120.254 C 281.724 120.254,281.823 120.098,281.823 119.908 C 281.823 119.717,281.979 119.561,282.170 119.561 C 282.360 119.561,282.516 119.462,282.516 119.341 C 282.516 119.055,283.625 117.946,283.911 117.946 C 284.032 117.946,284.132 117.790,284.132 117.600 C 284.132 117.409,284.287 117.253,284.478 117.253 C 284.668 117.253,284.824 117.154,284.824 117.033 C 284.824 116.747,285.933 115.638,286.219 115.638 C 286.341 115.638,286.440 115.482,286.440 115.291 C 286.440 115.101,286.595 114.945,286.786 114.945 C 286.976 114.945,287.132 114.846,287.132 114.725 C 287.132 114.439,288.241 113.329,288.528 113.329 C 288.649 113.329,288.748 113.174,288.748 112.983 C 288.748 112.793,288.904 112.637,289.094 112.637 C 289.284 112.637,289.440 112.538,289.440 112.417 C 289.440 112.130,290.549 111.021,290.836 111.021 C 290.957 111.021,291.056 110.866,291.056 110.675 C 291.056 110.485,291.212 110.329,291.402 110.329 C 291.593 110.329,291.748 110.230,291.748 110.109 C 291.748 109.822,292.857 108.713,293.144 108.713 C 293.265 108.713,293.364 108.557,293.364 108.367 C 293.364 108.177,293.520 108.021,293.710 108.021 C 293.901 108.021,294.057 107.922,294.057 107.800 C 294.057 107.514,295.166 106.405,295.452 106.405 C 295.573 106.405,295.672 106.249,295.672 106.059 C 295.672 105.868,295.828 105.713,296.018 105.713 C 296.209 105.713,296.365 105.613,296.365 105.492 C 296.365 105.206,297.474 104.097,297.760 104.097 C 297.881 104.097,297.980 103.941,297.980 103.751 C 297.980 103.560,298.136 103.405,298.327 103.405 C 298.517 103.405,298.673 103.305,298.673 103.184 C 298.673 102.898,299.782 101.789,300.068 101.789 C 300.189 101.789,300.289 101.633,300.289 101.443 C 300.289 101.252,300.444 101.096,300.635 101.096 C 300.825 101.096,300.981 100.997,300.981 100.876 C 300.981 100.590,302.090 99.481,302.376 99.481 C 302.498 99.481,302.597 99.325,302.597 99.134 C 302.597 98.944,302.752 98.788,302.943 98.788 C 303.133 98.788,303.289 98.689,303.289 98.568 C 303.289 98.282,304.398 97.173,304.684 97.173 C 304.806 97.173,304.905 97.017,304.905 96.826 C 304.905 96.636,305.061 96.480,305.251 96.480 C 305.441 96.480,305.597 96.381,305.597 96.260 C 305.597 95.973,306.706 94.864,306.993 94.864 C 307.114 94.864,307.213 94.709,307.213 94.518 C 307.213 94.328,307.369 94.172,307.559 94.172 C 307.750 94.172,307.905 94.073,307.905 93.952 C 307.905 93.665,309.014 92.556,309.301 92.556 C 309.422 92.556,309.521 92.400,309.521 92.210 C 309.521 92.020,309.677 91.864,309.867 91.864 C 310.058 91.864,310.214 91.765,310.214 91.643 C 310.214 91.357,311.323 90.248,311.609 90.248 C 311.730 90.248,311.829 90.092,311.829 89.902 C 311.829 89.711,311.985 89.556,312.175 89.556 C 312.366 89.556,312.522 89.457,312.522 89.335 C 312.522 89.049,313.631 87.940,313.917 87.940 C 314.038 87.940,314.137 87.784,314.137 87.594 C 314.137 87.403,314.293 87.248,314.484 87.248 C 314.674 87.248,314.830 87.148,314.830 87.027 C 314.830 86.741,315.939 85.632,316.225 85.632 C 316.346 85.632,316.445 85.476,316.445 85.286 C 316.445 85.095,316.601 84.939,316.792 84.939 C 316.982 84.939,317.138 84.840,317.138 84.719 C 317.138 84.433,318.247 83.324,318.533 83.324 C 318.654 83.324,318.754 83.168,318.754 82.977 C 318.754 82.787,318.909 82.631,319.100 82.631 C 319.290 82.631,319.446 82.532,319.446 82.411 C 319.446 82.125,320.555 81.016,320.841 81.016 C 320.963 81.016,321.062 80.860,321.062 80.669 C 321.062 80.479,321.218 80.323,321.408 80.323 C 321.598 80.323,321.754 80.224,321.754 80.103 C 321.754 79.817,322.863 78.707,323.150 78.707 C 323.271 78.707,323.370 78.552,323.370 78.361 C 323.370 78.171,323.526 78.015,323.716 78.015 C 323.907 78.015,324.062 77.916,324.062 77.795 C 324.062 77.508,325.171 76.399,325.458 76.399 C 325.579 76.399,325.678 76.244,325.678 76.053 C 325.678 75.863,325.834 75.707,326.024 75.707 C 326.215 75.707,326.370 75.608,326.370 75.487 C 326.370 75.200,327.480 74.091,327.766 74.091 C 327.887 74.091,327.986 73.935,327.986 73.745 C 327.986 73.555,328.142 73.399,328.332 73.399 C 328.523 73.399,328.679 73.300,328.679 73.178 C 328.679 72.892,329.788 71.783,330.074 71.783 C 330.195 71.783,330.294 71.627,330.294 71.437 C 330.294 71.246,330.450 71.091,330.641 71.091 C 330.831 71.091,330.987 70.991,330.987 70.870 C 330.987 70.584,332.096 69.475,332.382 69.475 C 332.503 69.475,332.602 69.319,332.602 69.129 C 332.602 68.938,332.758 68.782,332.949 68.782 C 333.139 68.782,333.295 68.683,333.295 68.562 C 333.295 68.276,334.404 67.167,334.690 67.167 C 334.811 67.167,334.911 67.011,334.911 66.821 C 334.911 66.630,335.066 66.474,335.257 66.474 C 335.447 66.474,335.603 66.375,335.603 66.254 C 335.603 65.968,336.712 64.859,336.998 64.859 C 337.120 64.859,337.219 64.703,337.219 64.512 C 337.219 64.322,337.374 64.166,337.565 64.166 C 337.755 64.166,337.911 64.067,337.911 63.946 C 337.911 63.660,339.020 62.550,339.307 62.550 C 339.428 62.550,339.527 62.451,339.527 62.329 C 339.527 62.046,341.339 60.242,341.622 60.242 C 341.739 60.242,341.835 60.143,341.835 60.020 C 341.835 59.738,343.647 57.934,343.931 57.934 C 344.047 57.934,344.143 57.834,344.143 57.712 C 344.143 57.430,345.955 55.626,346.239 55.626 C 346.356 55.626,346.451 55.526,346.451 55.404 C 346.451 55.122,348.263 53.318,348.547 53.318 C 348.664 53.318,348.759 53.218,348.759 53.096 C 348.759 52.814,350.571 51.010,350.855 51.010 C 350.972 51.010,351.068 50.910,351.068 50.788 C 351.068 50.506,352.880 48.702,353.163 48.702 C 353.280 48.702,353.376 48.602,353.376 48.480 C 353.376 48.197,355.188 46.394,355.471 46.394 C 355.588 46.394,355.684 46.294,355.684 46.172 C 355.684 45.889,357.496 44.085,357.779 44.085 C 357.896 44.085,357.992 43.986,357.992 43.864 C 357.992 43.581,359.804 41.777,360.088 41.777 C 360.204 41.777,360.300 41.683,360.300 41.569 C 360.300 41.454,369.233 32.428,380.150 21.511 C 399.114 2.549,400.000 1.625,400.000 0.831 L 400.000 0.000 269.475 0.000 L 138.950 0.000 138.950 21.233 M0.000 1.962 C 0.000 2.808,0.101 3.462,0.231 3.462 C 0.358 3.462,0.462 3.970,0.462 4.592 C 0.462 5.383,0.565 5.761,0.808 5.854 C 1.063 5.952,1.154 6.354,1.154 7.379 C 1.154 8.462,1.231 8.771,1.500 8.771 C 1.766 8.771,1.847 9.066,1.847 10.043 C 1.847 11.029,1.950 11.403,2.308 11.710 C 2.662 12.013,2.770 12.391,2.770 13.330 C 2.770 14.207,2.868 14.594,3.116 14.689 C 3.365 14.784,3.462 15.173,3.462 16.066 C 3.462 17.019,3.543 17.311,3.808 17.311 C 4.078 17.311,4.155 17.621,4.155 18.718 C 4.155 19.930,4.218 20.141,4.616 20.245 C 5.017 20.350,5.078 20.560,5.078 21.839 C 5.078 22.995,5.153 23.312,5.424 23.312 C 5.689 23.312,5.770 23.605,5.770 24.565 C 5.770 25.371,5.894 25.942,6.117 26.164 C 6.325 26.373,6.463 26.938,6.463 27.587 C 6.463 28.470,6.546 28.686,6.924 28.785 C 7.325 28.890,7.386 29.100,7.386 30.379 C 7.386 31.535,7.461 31.852,7.732 31.852 C 8.002 31.852,8.078 32.161,8.078 33.244 C 8.078 34.269,8.170 34.672,8.425 34.769 C 8.665 34.861,8.771 35.236,8.771 35.988 C 8.771 36.755,8.907 37.220,9.233 37.569 C 9.568 37.929,9.694 38.384,9.694 39.229 C 9.694 40.109,9.778 40.392,10.040 40.392 C 10.313 40.392,10.387 40.713,10.387 41.893 C 10.387 43.072,10.461 43.393,10.733 43.393 C 10.986 43.393,11.080 43.657,11.082 44.374 C 11.086 45.689,11.296 46.394,11.683 46.394 C 11.915 46.394,12.002 46.732,12.002 47.638 C 12.002 48.532,12.100 48.921,12.349 49.016 C 12.603 49.114,12.695 49.516,12.695 50.541 C 12.695 51.625,12.771 51.933,13.041 51.933 C 13.302 51.933,13.387 52.213,13.387 53.068 C 13.387 54.419,13.553 54.934,13.989 54.934 C 14.228 54.934,14.310 55.290,14.310 56.326 C 14.310 57.350,14.402 57.753,14.657 57.851 C 14.900 57.944,15.003 58.323,15.003 59.120 C 15.003 59.918,15.106 60.296,15.349 60.390 C 15.590 60.482,15.695 60.859,15.695 61.633 C 15.695 62.960,15.863 63.474,16.297 63.474 C 16.539 63.474,16.619 63.846,16.619 64.974 C 16.619 66.154,16.693 66.474,16.965 66.474 C 17.225 66.474,17.311 66.752,17.311 67.584 C 17.311 68.203,17.461 68.893,17.650 69.142 C 17.836 69.389,17.992 70.093,17.996 70.708 C 18.002 71.629,18.085 71.848,18.465 71.947 C 18.866 72.052,18.927 72.262,18.927 73.541 C 18.927 74.697,19.001 75.014,19.273 75.014 C 19.542 75.014,19.619 75.323,19.619 76.407 C 19.619 77.431,19.711 77.834,19.965 77.932 C 20.204 78.023,20.312 78.397,20.312 79.138 C 20.312 79.962,20.419 80.279,20.773 80.500 C 21.144 80.732,21.235 81.039,21.235 82.063 C 21.235 82.984,21.331 83.375,21.581 83.471 C 21.835 83.568,21.927 83.969,21.927 84.971 C 21.927 85.974,22.020 86.374,22.274 86.472 C 22.516 86.565,22.620 86.943,22.620 87.734 C 22.620 88.555,22.746 88.989,23.081 89.325 C 23.406 89.650,23.543 90.094,23.543 90.825 C 23.543 91.595,23.633 91.864,23.889 91.864 C 24.162 91.864,24.235 92.185,24.235 93.371 C 24.235 94.498,24.323 94.912,24.582 95.012 C 24.812 95.100,24.929 95.466,24.931 96.101 C 24.935 97.392,25.147 98.096,25.532 98.096 C 25.764 98.096,25.851 98.434,25.851 99.337 C 25.851 100.159,25.968 100.675,26.197 100.866 C 26.419 101.049,26.544 101.560,26.544 102.279 C 26.544 103.126,26.629 103.405,26.890 103.405 C 27.159 103.405,27.236 103.712,27.236 104.787 C 27.236 105.920,27.319 106.222,27.698 106.459 C 28.073 106.693,28.159 106.997,28.159 108.084 C 28.159 109.059,28.253 109.456,28.505 109.553 C 28.746 109.645,28.852 110.021,28.852 110.787 C 28.852 111.484,28.979 111.993,29.198 112.175 C 29.421 112.360,29.544 112.872,29.544 113.610 C 29.544 114.563,29.622 114.778,30.006 114.878 C 30.406 114.983,30.467 115.193,30.467 116.448 C 30.467 117.522,30.557 117.931,30.814 118.029 C 31.067 118.127,31.160 118.527,31.160 119.530 C 31.160 120.532,31.252 120.932,31.506 121.030 C 31.743 121.121,31.852 121.492,31.852 122.207 C 31.852 123.001,31.963 123.320,32.314 123.539 C 32.689 123.773,32.776 124.077,32.776 125.157 C 32.776 126.184,32.854 126.486,33.122 126.486 C 33.393 126.486,33.468 126.804,33.468 127.961 C 33.468 128.998,33.562 129.473,33.784 129.558 C 33.981 129.634,34.141 130.178,34.209 130.996 C 34.284 131.898,34.439 132.380,34.701 132.527 C 34.977 132.681,35.084 133.059,35.084 133.883 C 35.084 134.745,35.169 135.026,35.430 135.026 C 35.702 135.026,35.776 135.347,35.776 136.526 C 35.776 137.706,35.850 138.027,36.122 138.027 C 36.388 138.027,36.469 138.322,36.469 139.298 C 36.469 140.284,36.572 140.659,36.930 140.965 C 37.284 141.268,37.392 141.646,37.392 142.586 C 37.392 143.462,37.490 143.849,37.738 143.944 C 37.987 144.040,38.084 144.428,38.084 145.322 C 38.084 146.274,38.166 146.567,38.430 146.567 C 38.700 146.567,38.777 146.877,38.777 147.973 C 38.777 149.186,38.840 149.396,39.238 149.500 C 39.639 149.605,39.700 149.815,39.700 151.094 C 39.700 152.250,39.775 152.568,40.046 152.568 C 40.311 152.568,40.392 152.860,40.392 153.809 C 40.392 154.631,40.509 155.147,40.739 155.338 C 40.961 155.522,41.085 156.034,41.085 156.772 C 41.085 157.726,41.163 157.940,41.546 158.040 C 41.947 158.145,42.008 158.355,42.008 159.635 C 42.008 160.790,42.083 161.108,42.354 161.108 C 42.624 161.108,42.701 161.416,42.701 162.500 C 42.701 163.525,42.792 163.927,43.047 164.025 C 43.289 164.118,43.393 164.495,43.393 165.279 C 43.393 166.164,43.490 166.452,43.855 166.647 C 44.237 166.852,44.316 167.131,44.316 168.271 C 44.316 169.341,44.393 169.648,44.662 169.648 C 44.932 169.648,45.009 169.957,45.009 171.040 C 45.009 172.065,45.100 172.467,45.355 172.565 C 45.597 172.658,45.701 173.036,45.701 173.827 C 45.701 174.649,45.827 175.083,46.163 175.418 C 46.489 175.744,46.624 176.188,46.624 176.926 C 46.624 177.643,46.733 178.014,46.971 178.105 C 47.228 178.204,47.317 178.614,47.317 179.713 C 47.317 180.871,47.391 181.189,47.663 181.189 C 47.924 181.189,48.009 181.469,48.009 182.324 C 48.009 183.675,48.175 184.189,48.611 184.189 C 48.846 184.189,48.932 184.525,48.932 185.442 C 48.932 186.248,49.056 186.819,49.279 187.041 C 49.486 187.249,49.625 187.813,49.625 188.450 C 49.625 189.182,49.733 189.554,49.971 189.645 C 50.213 189.738,50.317 190.114,50.317 190.889 C 50.317 192.215,50.485 192.729,50.919 192.729 C 51.158 192.729,51.241 193.085,51.241 194.121 C 51.241 195.146,51.332 195.549,51.587 195.646 C 51.828 195.739,51.933 196.116,51.933 196.892 C 51.933 197.574,52.067 198.139,52.279 198.351 C 52.498 198.570,52.626 199.138,52.626 199.890 C 52.626 200.888,52.701 201.102,53.087 201.203 C 53.488 201.307,53.549 201.517,53.549 202.797 C 53.549 203.952,53.623 204.270,53.895 204.270 C 54.160 204.270,54.241 204.563,54.241 205.523 C 54.241 206.329,54.365 206.900,54.587 207.122 C 54.789 207.323,54.934 207.887,54.934 208.468 C 54.934 209.207,55.050 209.541,55.381 209.747 C 55.663 209.923,55.855 210.342,55.900 210.881 C 55.980 211.832,56.509 212.205,56.707 211.450 C 56.777 211.182,56.910 210.964,57.003 210.964 C 57.297 210.964,197.688 70.434,197.766 70.062 C 197.833 69.742,194.384 69.706,164.125 69.706 C 134.310 69.706,130.410 69.746,130.410 70.052 C 130.410 70.242,130.254 70.398,130.063 70.398 C 129.873 70.398,129.717 70.542,129.717 70.717 C 129.717 70.893,129.510 71.091,129.256 71.157 C 129.002 71.224,128.794 71.444,128.794 71.646 C 128.794 71.848,128.638 72.014,128.448 72.014 C 128.257 72.014,128.102 72.170,128.102 72.360 C 128.102 72.550,127.946 72.706,127.755 72.706 C 127.565 72.706,127.409 72.850,127.409 73.026 C 127.409 73.201,127.201 73.399,126.947 73.466 C 126.694 73.532,126.486 73.752,126.486 73.954 C 126.486 74.156,126.330 74.322,126.140 74.322 C 125.949 74.322,125.793 74.478,125.793 74.668 C 125.793 74.859,125.638 75.014,125.447 75.014 C 125.257 75.014,125.101 75.158,125.101 75.334 C 125.101 75.509,124.893 75.707,124.639 75.774 C 124.385 75.840,124.178 76.060,124.178 76.262 C 124.178 76.465,124.022 76.630,123.832 76.630 C 123.641 76.630,123.485 76.786,123.485 76.976 C 123.485 77.167,123.329 77.323,123.139 77.323 C 122.949 77.323,122.793 77.466,122.793 77.642 C 122.793 77.817,122.585 78.015,122.331 78.082 C 122.077 78.148,121.870 78.368,121.870 78.570 C 121.870 78.773,121.714 78.938,121.523 78.938 C 121.333 78.938,121.177 79.094,121.177 79.284 C 121.177 79.475,121.021 79.631,120.831 79.631 C 120.641 79.631,120.485 79.774,120.485 79.950 C 120.485 80.126,120.277 80.324,120.023 80.390 C 119.769 80.456,119.561 80.676,119.561 80.879 C 119.561 81.081,119.406 81.246,119.215 81.246 C 119.025 81.246,118.869 81.402,118.869 81.593 C 118.869 81.783,118.713 81.939,118.523 81.939 C 118.332 81.939,118.177 82.095,118.177 82.285 C 118.177 82.475,118.011 82.631,117.809 82.631 C 117.606 82.631,117.387 82.839,117.320 83.093 C 117.254 83.347,117.056 83.555,116.880 83.555 C 116.705 83.555,116.561 83.710,116.561 83.901 C 116.561 84.091,116.405 84.247,116.215 84.247 C 116.024 84.247,115.868 84.391,115.868 84.566 C 115.868 84.742,115.661 84.940,115.407 85.006 C 115.153 85.073,114.945 85.293,114.945 85.495 C 114.945 85.697,114.789 85.863,114.599 85.863 C 114.409 85.863,114.253 86.018,114.253 86.209 C 114.253 86.399,114.097 86.555,113.907 86.555 C 113.716 86.555,113.560 86.699,113.560 86.874 C 113.560 87.050,113.353 87.248,113.099 87.314 C 112.845 87.381,112.637 87.601,112.637 87.803 C 112.637 88.005,112.481 88.171,112.291 88.171 C 112.100 88.171,111.945 88.327,111.945 88.517 C 111.945 88.707,111.789 88.863,111.598 88.863 C 111.408 88.863,111.252 89.007,111.252 89.183 C 111.252 89.358,111.044 89.556,110.791 89.623 C 110.537 89.689,110.329 89.909,110.329 90.111 C 110.329 90.313,110.173 90.479,109.983 90.479 C 109.792 90.479,109.636 90.635,109.636 90.825 C 109.636 91.016,109.481 91.171,109.290 91.171 C 109.100 91.171,108.944 91.315,108.944 91.491 C 108.944 91.666,108.736 91.864,108.482 91.931 C 108.229 91.997,108.021 92.217,108.021 92.419 C 108.021 92.622,107.865 92.787,107.675 92.787 C 107.484 92.787,107.328 92.943,107.328 93.133 C 107.328 93.324,107.173 93.480,106.982 93.480 C 106.792 93.480,106.636 93.623,106.636 93.799 C 106.636 93.974,106.428 94.172,106.174 94.239 C 105.920 94.305,105.713 94.525,105.713 94.727 C 105.713 94.930,105.557 95.095,105.366 95.095 C 105.176 95.095,105.020 95.251,105.020 95.441 C 105.020 95.632,104.864 95.788,104.674 95.788 C 104.484 95.788,104.328 95.931,104.328 96.107 C 104.328 96.283,104.120 96.481,103.866 96.547 C 103.612 96.613,103.405 96.833,103.405 97.036 C 103.405 97.238,103.249 97.403,103.058 97.403 C 102.868 97.403,102.712 97.559,102.712 97.750 C 102.712 97.940,102.556 98.096,102.366 98.096 C 102.175 98.096,102.020 98.239,102.020 98.415 C 102.020 98.591,101.812 98.789,101.558 98.855 C 101.304 98.922,101.096 99.141,101.096 99.344 C 101.096 99.546,100.941 99.711,100.750 99.711 C 100.560 99.711,100.404 99.867,100.404 100.058 C 100.404 100.248,100.248 100.404,100.058 100.404 C 99.867 100.404,99.711 100.548,99.711 100.723 C 99.711 100.899,99.504 101.097,99.250 101.163 C 98.996 101.230,98.788 101.449,98.788 101.652 C 98.788 101.854,98.632 102.020,98.442 102.020 C 98.252 102.020,98.096 102.175,98.096 102.366 C 98.096 102.556,97.940 102.712,97.750 102.712 C 97.559 102.712,97.403 102.856,97.403 103.031 C 97.403 103.207,97.196 103.405,96.942 103.471 C 96.688 103.538,96.480 103.758,96.480 103.960 C 96.480 104.162,96.324 104.328,96.134 104.328 C 95.943 104.328,95.788 104.484,95.788 104.674 C 95.788 104.864,95.632 105.020,95.441 105.020 C 95.251 105.020,95.095 105.164,95.095 105.339 C 95.095 105.515,94.887 105.713,94.634 105.780 C 94.380 105.846,94.172 106.066,94.172 106.268 C 94.172 106.470,94.016 106.636,93.826 106.636 C 93.635 106.636,93.480 106.792,93.480 106.982 C 93.480 107.173,93.324 107.328,93.133 107.328 C 92.943 107.328,92.787 107.472,92.787 107.648 C 92.787 107.823,92.579 108.021,92.325 108.088 C 91.910 108.196,91.864 108.095,91.864 107.069 C 91.864 106.269,91.761 105.889,91.518 105.796 C 91.265 105.699,91.171 105.300,91.171 104.315 C 91.171 103.419,91.065 102.904,90.856 102.781 C 90.680 102.678,90.490 102.049,90.425 101.346 C 90.352 100.564,90.167 99.992,89.932 99.820 C 89.678 99.634,89.556 99.198,89.556 98.474 C 89.556 97.676,89.467 97.403,89.209 97.403 C 88.937 97.403,88.863 97.082,88.863 95.896 C 88.863 94.769,88.776 94.355,88.517 94.255 C 88.307 94.175,88.171 93.826,88.171 93.368 C 88.171 92.138,87.904 91.171,87.565 91.171 C 87.335 91.171,87.248 90.829,87.248 89.930 C 87.248 89.108,87.131 88.592,86.901 88.402 C 86.680 88.218,86.555 87.708,86.555 86.988 C 86.555 86.142,86.469 85.863,86.209 85.863 C 85.943 85.863,85.863 85.568,85.863 84.593 C 85.863 83.631,85.751 83.212,85.401 82.862 C 85.051 82.512,84.939 82.093,84.939 81.124 C 84.939 80.202,84.843 79.810,84.593 79.714 C 84.352 79.621,84.247 79.245,84.247 78.468 C 84.247 77.787,84.113 77.221,83.901 77.009 C 83.692 76.801,83.555 76.236,83.555 75.586 C 83.555 74.704,83.471 74.488,83.093 74.389 C 82.693 74.284,82.631 74.074,82.631 72.819 C 82.631 71.745,82.542 71.337,82.285 71.238 C 82.036 71.143,81.939 70.753,81.939 69.857 C 81.939 69.028,81.822 68.511,81.593 68.321 C 81.381 68.145,81.246 67.640,81.246 67.023 C 81.246 66.320,81.106 65.872,80.785 65.551 C 80.446 65.213,80.323 64.782,80.323 63.935 C 80.323 63.063,80.239 62.781,79.977 62.781 C 79.705 62.781,79.631 62.463,79.631 61.306 C 79.631 60.270,79.537 59.794,79.315 59.709 C 79.118 59.633,78.957 59.088,78.889 58.265 C 78.817 57.399,78.647 56.845,78.397 56.662 C 78.139 56.474,78.015 56.044,78.015 55.337 C 78.015 54.620,77.906 54.249,77.669 54.158 C 77.414 54.060,77.323 53.657,77.323 52.633 C 77.323 51.603,77.240 51.241,77.004 51.241 C 76.779 51.241,76.656 50.826,76.584 49.830 C 76.511 48.826,76.370 48.357,76.094 48.203 C 75.805 48.041,75.707 47.665,75.707 46.721 C 75.707 45.809,75.610 45.419,75.361 45.323 C 75.112 45.228,75.014 44.839,75.014 43.945 C 75.014 42.993,74.933 42.701,74.668 42.701 C 74.407 42.701,74.322 42.421,74.322 41.565 C 74.322 40.215,74.156 39.700,73.720 39.700 C 73.478 39.700,73.399 39.328,73.399 38.200 C 73.399 37.020,73.325 36.699,73.053 36.699 C 72.787 36.699,72.706 36.406,72.706 35.446 C 72.706 34.640,72.583 34.070,72.360 33.847 C 72.151 33.638,72.014 33.074,72.014 32.424 C 72.014 31.542,71.931 31.326,71.552 31.227 C 71.151 31.122,71.091 30.912,71.091 29.633 C 71.091 28.477,71.016 28.159,70.744 28.159 C 70.475 28.159,70.398 27.851,70.398 26.767 C 70.398 25.743,70.307 25.340,70.052 25.242 C 69.812 25.150,69.706 24.776,69.706 24.023 C 69.706 23.257,69.570 22.792,69.244 22.442 C 68.909 22.082,68.782 21.628,68.782 20.783 C 68.782 19.902,68.698 19.619,68.436 19.619 C 68.164 19.619,68.090 19.299,68.090 18.119 C 68.090 16.939,68.016 16.619,67.744 16.619 C 67.491 16.619,67.397 16.354,67.394 15.638 C 67.390 14.323,67.181 13.618,66.794 13.618 C 66.561 13.618,66.474 13.279,66.474 12.373 C 66.474 11.480,66.377 11.091,66.128 10.996 C 65.873 10.898,65.782 10.495,65.782 9.471 C 65.782 8.387,65.705 8.078,65.436 8.078 C 65.183 8.078,65.089 7.814,65.086 7.098 C 65.082 5.783,64.872 5.078,64.485 5.078 C 64.249 5.078,64.166 4.717,64.166 3.686 C 64.166 2.661,64.075 2.259,63.820 2.161 C 63.606 2.079,63.474 1.728,63.474 1.245 L 63.474 0.462 31.737 0.462 L 0.000 0.462 0.000 1.962 M248.197 56.953 C 248.118 57.175,248.001 57.461,247.936 57.588 C 247.872 57.715,248.096 57.567,248.434 57.259 C 249.147 56.609,249.169 56.549,248.694 56.549 C 248.500 56.549,248.276 56.731,248.197 56.953 " stroke="none" fill="#fff" fill-rule="evenodd"/>
    <path d="M139.046 42.450 C 138.993 42.503,138.950 45.541,138.950 49.201 L 138.950 55.856 193.941 55.914 C 242.635 55.966,248.934 56.012,248.948 56.319 C 248.971 56.856,248.125 57.689,247.716 57.532 C 247.490 57.445,247.415 57.488,247.514 57.648 C 247.600 57.788,247.563 57.969,247.432 58.050 C 247.301 58.131,247.249 58.286,247.317 58.396 C 247.384 58.505,247.318 58.670,247.169 58.762 C 247.001 58.866,246.961 58.829,247.064 58.662 C 247.155 58.516,247.166 58.396,247.089 58.396 C 246.882 58.396,245.817 59.584,245.817 59.814 C 245.817 59.923,245.655 60.012,245.457 60.012 C 245.259 60.012,245.161 60.115,245.239 60.242 C 245.318 60.369,245.266 60.473,245.124 60.473 C 244.982 60.473,244.926 60.570,244.999 60.688 C 245.072 60.806,245.010 60.978,244.861 61.070 C 244.693 61.174,244.653 61.137,244.756 60.970 C 244.846 60.824,244.817 60.704,244.692 60.704 C 244.566 60.704,244.389 60.937,244.298 61.222 C 244.091 61.875,243.515 62.308,243.076 62.139 C 242.871 62.061,242.801 62.109,242.896 62.262 C 243.102 62.595,242.392 63.290,242.047 63.093 C 241.899 63.008,241.844 63.013,241.926 63.105 C 242.008 63.196,241.852 63.504,241.580 63.790 C 241.308 64.075,240.981 64.490,240.854 64.712 C 240.727 64.934,240.416 65.146,240.163 65.182 C 239.909 65.219,239.691 65.395,239.678 65.573 C 239.621 66.359,239.565 66.474,239.238 66.474 C 239.046 66.474,238.892 66.679,238.892 66.936 C 238.892 67.192,238.738 67.398,238.546 67.398 C 238.355 67.398,238.200 67.553,238.200 67.744 C 238.200 67.936,237.994 68.090,237.738 68.090 C 237.477 68.090,237.276 68.244,237.276 68.443 C 237.276 68.638,237.121 68.857,236.930 68.930 C 236.740 69.003,236.584 69.207,236.584 69.384 C 236.584 69.561,236.428 69.706,236.238 69.706 C 236.047 69.706,235.892 69.862,235.892 70.052 C 235.892 70.244,235.686 70.398,235.430 70.398 C 235.176 70.398,234.968 70.543,234.968 70.720 C 234.968 70.897,234.812 71.101,234.622 71.174 C 234.432 71.247,234.276 71.466,234.276 71.660 C 234.276 71.855,234.120 72.014,233.930 72.014 C 233.739 72.014,233.583 72.170,233.583 72.360 C 233.583 72.556,233.377 72.706,233.108 72.706 C 232.847 72.706,232.694 72.805,232.768 72.926 C 232.843 73.046,232.693 73.257,232.436 73.395 C 232.178 73.533,231.968 73.798,231.968 73.984 C 231.968 74.170,231.812 74.322,231.621 74.322 C 231.431 74.322,231.275 74.478,231.275 74.668 C 231.275 74.861,231.070 75.014,230.814 75.014 C 230.501 75.014,230.352 75.168,230.352 75.490 C 230.352 75.768,230.250 75.902,230.106 75.813 C 229.970 75.729,229.802 75.878,229.733 76.145 C 229.663 76.412,229.462 76.630,229.286 76.630 C 229.111 76.630,228.967 76.786,228.967 76.976 C 228.967 77.169,228.762 77.323,228.505 77.323 C 228.193 77.323,228.044 77.476,228.044 77.798 C 228.044 78.076,227.942 78.210,227.798 78.121 C 227.662 78.037,227.494 78.186,227.424 78.453 C 227.355 78.720,227.154 78.938,226.978 78.938 C 226.803 78.938,226.659 79.094,226.659 79.284 C 226.659 79.475,226.560 79.631,226.440 79.631 C 226.122 79.631,225.043 80.676,225.043 80.984 C 225.043 81.128,224.887 81.246,224.697 81.246 C 224.507 81.246,224.351 81.402,224.351 81.593 C 224.351 81.783,224.252 81.939,224.131 81.939 C 224.009 81.939,223.646 82.203,223.323 82.526 C 223.000 82.849,222.735 83.213,222.735 83.334 C 222.735 83.455,222.579 83.555,222.389 83.555 C 222.198 83.555,222.043 83.698,222.043 83.874 C 222.043 84.049,221.835 84.247,221.581 84.314 C 221.327 84.380,221.119 84.600,221.119 84.802 C 221.119 85.005,220.964 85.170,220.773 85.170 C 220.583 85.170,220.427 85.326,220.427 85.516 C 220.427 85.707,220.271 85.863,220.081 85.863 C 219.890 85.863,219.735 86.018,219.735 86.209 C 219.735 86.401,219.529 86.555,219.273 86.555 C 219.019 86.555,218.811 86.700,218.811 86.877 C 218.811 87.053,218.656 87.258,218.465 87.331 C 218.275 87.404,218.119 87.623,218.119 87.817 C 218.119 88.012,217.963 88.171,217.773 88.171 C 217.582 88.171,217.426 88.327,217.426 88.517 C 217.426 88.709,217.221 88.863,216.965 88.863 C 216.711 88.863,216.503 89.008,216.503 89.185 C 216.503 89.362,216.347 89.566,216.157 89.639 C 215.967 89.712,215.811 89.931,215.811 90.125 C 215.811 90.320,215.655 90.479,215.465 90.479 C 215.274 90.479,215.118 90.635,215.118 90.825 C 215.118 91.016,215.003 91.171,214.862 91.171 C 214.508 91.171,213.511 92.147,213.507 92.499 C 213.504 92.657,213.347 92.787,213.156 92.787 C 212.966 92.787,212.810 92.943,212.810 93.133 C 212.810 93.324,212.692 93.480,212.548 93.480 C 212.240 93.480,211.194 94.558,211.194 94.876 C 211.194 94.997,211.039 95.095,210.848 95.095 C 210.658 95.095,210.502 95.251,210.502 95.441 C 210.502 95.632,210.384 95.788,210.240 95.788 C 209.932 95.788,208.886 96.866,208.886 97.184 C 208.886 97.305,208.731 97.403,208.540 97.403 C 208.350 97.403,208.194 97.559,208.194 97.750 C 208.194 97.940,208.076 98.096,207.932 98.096 C 207.624 98.096,206.578 99.175,206.578 99.493 C 206.578 99.613,206.422 99.711,206.232 99.711 C 206.042 99.711,205.886 99.867,205.886 100.058 C 205.886 100.248,205.768 100.404,205.624 100.404 C 205.316 100.404,204.270 101.483,204.270 101.801 C 204.270 101.921,204.114 102.020,203.924 102.020 C 203.733 102.020,203.578 102.175,203.578 102.366 C 203.578 102.556,203.460 102.712,203.316 102.712 C 203.007 102.712,201.962 103.791,201.962 104.109 C 201.962 104.229,201.806 104.328,201.616 104.328 C 201.425 104.328,201.269 104.484,201.269 104.674 C 201.269 104.864,201.152 105.020,201.007 105.020 C 200.699 105.020,199.654 106.099,199.654 106.417 C 199.654 106.537,199.498 106.636,199.308 106.636 C 199.117 106.636,198.961 106.792,198.961 106.982 C 198.961 107.173,198.843 107.328,198.699 107.328 C 198.391 107.328,197.346 108.407,197.346 108.725 C 197.346 108.846,197.190 108.944,196.999 108.944 C 196.809 108.944,196.653 109.100,196.653 109.290 C 196.653 109.481,196.535 109.636,196.391 109.636 C 196.083 109.636,195.038 110.715,195.038 111.033 C 195.038 111.154,194.882 111.252,194.691 111.252 C 194.501 111.252,194.345 111.408,194.345 111.598 C 194.345 111.789,194.227 111.945,194.083 111.945 C 193.775 111.945,192.729 113.023,192.729 113.341 C 192.729 113.462,192.574 113.560,192.383 113.560 C 192.193 113.560,192.037 113.716,192.037 113.907 C 192.037 114.097,191.907 114.255,191.748 114.257 C 191.397 114.262,190.421 115.258,190.421 115.612 C 190.421 115.753,190.265 115.868,190.075 115.868 C 189.885 115.868,189.729 116.024,189.729 116.215 C 189.729 116.405,189.599 116.563,189.440 116.565 C 189.088 116.570,188.113 117.566,188.113 117.921 C 188.113 118.061,187.957 118.177,187.767 118.177 C 187.576 118.177,187.421 118.332,187.421 118.523 C 187.421 118.713,187.291 118.871,187.132 118.873 C 186.780 118.878,185.805 119.874,185.805 120.229 C 185.805 120.370,185.649 120.485,185.459 120.485 C 185.268 120.485,185.113 120.641,185.113 120.831 C 185.113 121.021,184.983 121.179,184.824 121.181 C 184.472 121.186,183.497 122.182,183.497 122.537 C 183.497 122.678,183.341 122.793,183.151 122.793 C 182.960 122.793,182.804 122.949,182.804 123.139 C 182.804 123.329,182.675 123.487,182.516 123.489 C 182.164 123.494,181.189 124.490,181.189 124.845 C 181.189 124.986,181.033 125.101,180.842 125.101 C 180.652 125.101,180.496 125.257,180.496 125.447 C 180.496 125.638,180.366 125.795,180.208 125.797 C 179.856 125.802,178.881 126.799,178.881 127.153 C 178.881 127.294,178.725 127.409,178.534 127.409 C 178.344 127.409,178.188 127.565,178.188 127.755 C 178.188 127.946,178.058 128.103,177.900 128.106 C 177.548 128.110,176.572 129.107,176.572 129.461 C 176.572 129.602,176.417 129.717,176.226 129.717 C 176.036 129.717,175.880 129.873,175.880 130.063 C 175.880 130.254,175.750 130.411,175.591 130.414 C 175.240 130.419,174.264 131.415,174.264 131.769 C 174.264 131.910,174.108 132.025,173.918 132.025 C 173.728 132.025,173.572 132.181,173.572 132.372 C 173.572 132.562,173.442 132.720,173.283 132.722 C 172.931 132.727,171.956 133.723,171.956 134.078 C 171.956 134.218,171.800 134.334,171.610 134.334 C 171.420 134.334,171.264 134.489,171.264 134.680 C 171.264 134.870,171.134 135.028,170.975 135.030 C 170.623 135.035,169.648 136.031,169.648 136.386 C 169.648 136.526,169.492 136.642,169.302 136.642 C 169.111 136.642,168.956 136.797,168.956 136.988 C 168.956 137.178,168.826 137.336,168.667 137.338 C 168.315 137.343,167.340 138.339,167.340 138.694 C 167.340 138.835,167.184 138.950,166.994 138.950 C 166.803 138.950,166.647 139.106,166.647 139.296 C 166.647 139.486,166.518 139.644,166.359 139.646 C 166.007 139.651,165.032 140.647,165.032 141.002 C 165.032 141.143,164.876 141.258,164.686 141.258 C 164.495 141.258,164.339 141.414,164.339 141.604 C 164.339 141.795,164.209 141.952,164.051 141.954 C 163.699 141.959,162.724 142.956,162.724 143.310 C 162.724 143.451,162.568 143.566,162.377 143.566 C 162.187 143.566,162.031 143.722,162.031 143.912 C 162.031 144.103,161.901 144.260,161.743 144.262 C 161.391 144.267,160.415 145.264,160.415 145.618 C 160.415 145.759,160.260 145.874,160.069 145.874 C 159.879 145.874,159.723 146.030,159.723 146.220 C 159.723 146.411,159.593 146.568,159.435 146.571 C 159.083 146.575,158.107 147.572,158.107 147.926 C 158.107 148.067,157.952 148.182,157.761 148.182 C 157.571 148.182,157.415 148.338,157.415 148.529 C 157.415 148.719,157.285 148.877,157.126 148.879 C 156.774 148.884,155.799 149.880,155.799 150.234 C 155.799 150.375,155.643 150.490,155.453 150.490 C 155.263 150.490,155.107 150.646,155.107 150.837 C 155.107 151.027,154.977 151.185,154.818 151.187 C 154.466 151.192,153.491 152.188,153.491 152.543 C 153.491 152.683,153.335 152.799,153.145 152.799 C 152.954 152.799,152.799 152.954,152.799 153.145 C 152.799 153.335,152.669 153.493,152.510 153.495 C 152.158 153.500,151.183 154.496,151.183 154.851 C 151.183 154.992,151.027 155.107,150.837 155.107 C 150.646 155.107,150.490 155.263,150.490 155.453 C 150.490 155.643,150.361 155.801,150.202 155.803 C 149.850 155.808,148.875 156.804,148.875 157.159 C 148.875 157.300,148.719 157.415,148.529 157.415 C 148.338 157.415,148.182 157.571,148.182 157.761 C 148.182 157.952,148.053 158.109,147.894 158.111 C 147.542 158.116,146.567 159.112,146.567 159.467 C 146.567 159.608,146.411 159.723,146.220 159.723 C 146.030 159.723,145.874 159.879,145.874 160.069 C 145.874 160.260,145.759 160.415,145.618 160.415 C 145.264 160.415,144.267 161.391,144.262 161.743 C 144.260 161.901,144.103 162.031,143.912 162.031 C 143.722 162.031,143.566 162.187,143.566 162.377 C 143.566 162.568,143.451 162.724,143.310 162.724 C 142.956 162.724,141.959 163.699,141.954 164.051 C 141.952 164.209,141.795 164.339,141.604 164.339 C 141.414 164.339,141.258 164.495,141.258 164.686 C 141.258 164.876,141.143 165.032,141.002 165.032 C 140.647 165.032,139.651 166.007,139.646 166.359 C 139.644 166.518,139.486 166.647,139.296 166.647 C 139.106 166.647,138.950 166.803,138.950 166.994 C 138.950 167.184,138.835 167.340,138.694 167.340 C 138.339 167.340,137.343 168.315,137.338 168.667 C 137.336 168.826,137.178 168.956,136.988 168.956 C 136.797 168.956,136.642 169.111,136.642 169.302 C 136.642 169.492,136.526 169.648,136.386 169.648 C 136.031 169.648,135.035 170.623,135.030 170.975 C 135.028 171.134,134.870 171.264,134.680 171.264 C 134.489 171.264,134.334 171.420,134.334 171.610 C 134.334 171.800,134.218 171.956,134.078 171.956 C 133.723 171.956,132.727 172.931,132.722 173.283 C 132.720 173.442,132.562 173.572,132.372 173.572 C 132.181 173.572,132.025 173.728,132.025 173.918 C 132.025 174.108,131.910 174.264,131.769 174.264 C 131.415 174.264,130.419 175.240,130.414 175.591 C 130.411 175.750,130.254 175.880,130.063 175.880 C 129.873 175.880,129.717 176.036,129.717 176.226 C 129.717 176.417,129.602 176.572,129.461 176.572 C 129.107 176.572,128.110 177.548,128.106 177.900 C 128.103 178.058,127.946 178.188,127.755 178.188 C 127.565 178.188,127.409 178.344,127.409 178.534 C 127.409 178.725,127.294 178.881,127.153 178.881 C 126.799 178.881,125.802 179.856,125.797 180.208 C 125.795 180.366,125.638 180.496,125.447 180.496 C 125.257 180.496,125.101 180.652,125.101 180.842 C 125.101 181.033,124.986 181.189,124.845 181.189 C 124.490 181.189,123.494 182.164,123.489 182.516 C 123.487 182.675,123.329 182.804,123.139 182.804 C 122.949 182.804,122.793 182.960,122.793 183.151 C 122.793 183.341,122.678 183.497,122.537 183.497 C 122.182 183.497,121.186 184.472,121.181 184.824 C 121.179 184.983,121.021 185.113,120.831 185.113 C 120.641 185.113,120.485 185.268,120.485 185.459 C 120.485 185.649,120.370 185.805,120.229 185.805 C 119.874 185.805,118.878 186.780,118.873 187.132 C 118.871 187.291,118.713 187.421,118.523 187.421 C 118.332 187.421,118.177 187.576,118.177 187.767 C 118.177 187.957,118.061 188.113,117.921 188.113 C 117.566 188.113,116.570 189.088,116.565 189.440 C 116.563 189.599,116.405 189.729,116.215 189.729 C 116.024 189.729,115.868 189.885,115.868 190.075 C 115.868 190.265,115.753 190.421,115.612 190.421 C 115.258 190.421,114.262 191.397,114.257 191.748 C 114.255 191.907,114.097 192.037,113.907 192.037 C 113.716 192.037,113.560 192.193,113.560 192.383 C 113.560 192.574,113.445 192.729,113.304 192.729 C 112.950 192.729,111.953 193.705,111.949 194.057 C 111.946 194.215,111.789 194.345,111.598 194.345 C 111.408 194.345,111.252 194.501,111.252 194.691 C 111.252 194.882,111.137 195.038,110.996 195.038 C 110.642 195.038,109.645 196.013,109.640 196.365 C 109.638 196.523,109.481 196.653,109.290 196.653 C 109.100 196.653,108.944 196.809,108.944 196.999 C 108.944 197.190,108.829 197.346,108.688 197.346 C 108.333 197.346,107.337 198.321,107.332 198.673 C 107.330 198.832,107.173 198.961,106.982 198.961 C 106.792 198.961,106.636 199.117,106.636 199.308 C 106.636 199.498,106.521 199.654,106.380 199.654 C 106.025 199.654,105.029 200.629,105.024 200.981 C 105.022 201.140,104.864 201.269,104.674 201.269 C 104.484 201.269,104.328 201.425,104.328 201.616 C 104.328 201.806,104.213 201.962,104.072 201.962 C 103.717 201.962,102.721 202.937,102.716 203.289 C 102.714 203.448,102.556 203.578,102.366 203.578 C 102.175 203.578,102.020 203.733,102.020 203.924 C 102.020 204.114,101.904 204.270,101.764 204.270 C 101.409 204.270,100.413 205.245,100.408 205.597 C 100.406 205.756,100.248 205.886,100.058 205.886 C 99.867 205.886,99.711 206.042,99.711 206.232 C 99.711 206.422,99.596 206.578,99.455 206.578 C 99.101 206.578,98.105 207.553,98.100 207.905 C 98.098 208.064,97.940 208.194,97.750 208.194 C 97.559 208.194,97.403 208.350,97.403 208.540 C 97.403 208.731,97.288 208.886,97.147 208.886 C 96.793 208.886,95.797 209.862,95.792 210.214 C 95.789 210.372,95.632 210.502,95.441 210.502 C 95.251 210.502,95.095 210.658,95.095 210.848 C 95.095 211.039,94.980 211.194,94.839 211.194 C 94.485 211.194,93.488 212.170,93.484 212.522 C 93.481 212.680,93.324 212.810,93.133 212.810 C 92.943 212.810,92.787 212.966,92.787 213.156 C 92.787 213.347,92.672 213.503,92.531 213.503 C 92.177 213.503,91.180 214.478,91.175 214.830 C 91.173 214.988,91.016 215.118,90.825 215.118 C 90.635 215.118,90.479 215.274,90.479 215.465 C 90.479 215.655,90.364 215.811,90.223 215.811 C 89.868 215.811,88.872 216.786,88.867 217.138 C 88.865 217.297,88.707 217.426,88.517 217.426 C 88.327 217.426,88.171 217.582,88.171 217.773 C 88.171 217.963,88.056 218.119,87.915 218.119 C 87.560 218.119,86.564 219.094,86.559 219.446 C 86.557 219.605,86.399 219.735,86.209 219.735 C 86.018 219.735,85.863 219.890,85.863 220.081 C 85.863 220.271,85.747 220.427,85.607 220.427 C 85.252 220.427,84.256 221.402,84.251 221.754 C 84.249 221.913,84.091 222.043,83.901 222.043 C 83.710 222.043,83.555 222.198,83.555 222.389 C 83.555 222.579,83.439 222.735,83.299 222.735 C 82.944 222.735,81.948 223.710,81.943 224.062 C 81.941 224.221,81.783 224.351,81.593 224.351 C 81.402 224.351,81.246 224.507,81.246 224.697 C 81.246 224.887,81.131 225.043,80.990 225.043 C 80.636 225.043,79.640 226.019,79.635 226.370 C 79.632 226.529,79.475 226.659,79.284 226.659 C 79.094 226.659,78.938 226.815,78.938 227.005 C 78.938 227.196,78.823 227.351,78.682 227.351 C 78.328 227.351,77.331 228.327,77.327 228.679 C 77.324 228.837,77.167 228.967,76.976 228.967 C 76.786 228.967,76.630 229.111,76.630 229.286 C 76.630 229.462,76.422 229.660,76.168 229.726 C 75.892 229.799,75.707 230.041,75.707 230.330 C 75.707 230.814,75.708 230.814,85.978 230.814 C 92.093 230.814,96.249 230.727,96.249 230.601 C 96.249 230.484,138.476 188.146,190.086 136.517 C 241.697 84.888,283.884 42.607,283.836 42.559 C 283.716 42.439,139.166 42.331,139.046 42.450 M197.766 70.062 C 197.688 70.434,57.297 210.964,57.003 210.964 C 56.910 210.964,56.776 211.185,56.705 211.455 C 56.620 211.784,56.457 211.901,56.217 211.809 C 55.989 211.721,55.857 211.798,55.857 212.017 C 55.857 212.207,56.013 212.423,56.203 212.496 C 56.451 212.591,56.549 212.978,56.549 213.855 C 56.549 215.325,56.747 216.004,57.040 215.542 C 57.158 215.354,57.236 215.796,57.238 216.668 C 57.241 217.864,57.318 218.144,57.703 218.350 C 58.079 218.550,58.165 218.833,58.165 219.858 C 58.165 220.825,58.246 221.119,58.511 221.119 C 58.810 221.119,58.995 222.647,58.837 223.811 C 58.825 223.895,58.981 224.056,59.183 224.168 C 59.430 224.307,59.550 224.700,59.550 225.374 C 59.550 226.216,59.632 226.396,60.069 226.513 C 61.075 226.783,61.666 226.674,61.791 226.197 C 61.858 225.943,62.059 225.736,62.238 225.736 C 62.418 225.736,62.625 225.580,62.698 225.389 C 62.771 225.199,62.975 225.043,63.152 225.043 C 63.329 225.043,63.474 224.899,63.474 224.722 C 63.474 224.545,63.630 224.340,63.820 224.267 C 64.010 224.194,64.166 223.975,64.166 223.781 C 64.166 223.587,64.325 223.428,64.520 223.428 C 64.714 223.428,64.933 223.272,65.006 223.081 C 65.079 222.891,65.284 222.735,65.460 222.735 C 65.637 222.735,65.782 222.590,65.782 222.414 C 65.782 222.237,65.938 222.032,66.128 221.959 C 66.319 221.886,66.474 221.667,66.474 221.473 C 66.474 221.279,66.633 221.119,66.828 221.119 C 67.022 221.119,67.241 220.964,67.314 220.773 C 67.387 220.583,67.592 220.427,67.768 220.427 C 67.945 220.427,68.090 220.282,68.090 220.105 C 68.090 219.929,68.246 219.724,68.436 219.651 C 68.627 219.578,68.782 219.371,68.782 219.192 C 68.782 219.012,69.001 218.808,69.267 218.738 C 69.534 218.669,69.684 218.501,69.600 218.365 C 69.511 218.221,69.645 218.119,69.923 218.119 C 70.184 218.119,70.398 217.974,70.398 217.797 C 70.398 217.621,70.554 217.416,70.744 217.343 C 70.935 217.270,71.091 217.063,71.091 216.884 C 71.091 216.704,71.309 216.500,71.575 216.430 C 71.842 216.360,71.992 216.193,71.908 216.057 C 71.819 215.913,71.953 215.811,72.231 215.811 C 72.492 215.811,72.706 215.666,72.706 215.489 C 72.706 215.312,72.862 215.108,73.053 215.035 C 73.243 214.962,73.399 214.755,73.399 214.575 C 73.399 214.396,73.617 214.192,73.884 214.122 C 74.151 214.052,74.300 213.885,74.216 213.749 C 74.127 213.605,74.261 213.503,74.539 213.503 C 74.801 213.503,75.014 213.358,75.014 213.181 C 75.014 213.004,75.170 212.800,75.361 212.727 C 75.551 212.654,75.707 212.447,75.707 212.267 C 75.707 212.088,75.925 211.884,76.192 211.814 C 76.459 211.744,76.608 211.576,76.524 211.441 C 76.435 211.297,76.569 211.194,76.847 211.194 C 77.109 211.194,77.323 211.050,77.323 210.873 C 77.323 210.696,77.478 210.492,77.669 210.419 C 77.859 210.345,78.015 210.139,78.015 209.959 C 78.015 209.780,78.233 209.576,78.500 209.506 C 78.767 209.436,78.916 209.268,78.832 209.133 C 78.743 208.989,78.877 208.886,79.155 208.886 C 79.417 208.886,79.631 208.742,79.631 208.565 C 79.631 208.388,79.786 208.183,79.977 208.110 C 80.167 208.037,80.323 207.831,80.323 207.651 C 80.323 207.471,80.541 207.267,80.808 207.198 C 81.075 207.128,81.224 206.960,81.141 206.825 C 81.052 206.680,81.186 206.578,81.464 206.578 C 81.725 206.578,81.939 206.434,81.939 206.257 C 81.939 206.080,82.095 205.875,82.285 205.802 C 82.475 205.729,82.631 205.522,82.631 205.343 C 82.631 205.163,82.849 204.959,83.116 204.890 C 83.383 204.820,83.533 204.652,83.449 204.516 C 83.360 204.372,83.494 204.270,83.772 204.270 C 84.033 204.270,84.247 204.125,84.247 203.949 C 84.247 203.772,84.403 203.567,84.593 203.494 C 84.784 203.421,84.939 203.214,84.939 203.035 C 84.939 202.855,85.158 202.651,85.424 202.581 C 85.691 202.512,85.841 202.344,85.757 202.208 C 85.668 202.064,85.802 201.962,86.080 201.962 C 86.341 201.962,86.555 201.817,86.555 201.640 C 86.555 201.464,86.711 201.259,86.901 201.186 C 87.092 201.113,87.248 200.906,87.248 200.727 C 87.248 200.547,87.466 200.343,87.732 200.273 C 87.999 200.203,88.149 200.036,88.065 199.900 C 87.976 199.756,88.110 199.654,88.388 199.654 C 88.649 199.654,88.863 199.509,88.863 199.332 C 88.863 199.155,89.019 198.951,89.209 198.878 C 89.400 198.805,89.556 198.598,89.556 198.418 C 89.556 198.239,89.774 198.035,90.041 197.965 C 90.308 197.895,90.457 197.728,90.373 197.592 C 90.284 197.448,90.418 197.346,90.696 197.346 C 90.958 197.346,91.171 197.201,91.171 197.024 C 91.171 196.847,91.327 196.643,91.518 196.570 C 91.708 196.497,91.864 196.290,91.864 196.110 C 91.864 195.931,92.082 195.727,92.349 195.657 C 92.616 195.587,92.765 195.420,92.681 195.284 C 92.592 195.140,92.726 195.038,93.004 195.038 C 93.266 195.038,93.480 194.893,93.480 194.716 C 93.480 194.539,93.635 194.335,93.826 194.262 C 94.016 194.189,94.172 193.982,94.172 193.802 C 94.172 193.623,94.390 193.419,94.657 193.349 C 94.924 193.279,95.073 193.111,94.989 192.976 C 94.900 192.832,95.034 192.729,95.312 192.729 C 95.574 192.729,95.788 192.585,95.788 192.408 C 95.788 192.231,95.943 192.027,96.134 191.953 C 96.324 191.880,96.480 191.674,96.480 191.494 C 96.480 191.314,96.698 191.110,96.965 191.041 C 97.232 190.971,97.381 190.803,97.298 190.668 C 97.208 190.523,97.343 190.421,97.621 190.421 C 97.882 190.421,98.096 190.277,98.096 190.100 C 98.096 189.923,98.252 189.718,98.442 189.645 C 98.632 189.572,98.788 189.353,98.788 189.159 C 98.788 188.965,98.947 188.806,99.142 188.806 C 99.336 188.806,99.555 188.650,99.628 188.459 C 99.701 188.269,99.906 188.113,100.082 188.113 C 100.259 188.113,100.404 187.968,100.404 187.792 C 100.404 187.615,100.560 187.410,100.750 187.337 C 100.941 187.264,101.096 187.045,101.096 186.851 C 101.096 186.656,101.255 186.497,101.450 186.497 C 101.644 186.497,101.863 186.342,101.936 186.151 C 102.009 185.961,102.214 185.805,102.391 185.805 C 102.567 185.805,102.712 185.660,102.712 185.483 C 102.712 185.307,102.868 185.102,103.058 185.029 C 103.249 184.956,103.405 184.737,103.405 184.543 C 103.405 184.348,103.564 184.189,103.758 184.189 C 103.952 184.189,104.171 184.033,104.244 183.843 C 104.317 183.653,104.522 183.497,104.699 183.497 C 104.876 183.497,105.020 183.352,105.020 183.175 C 105.020 182.998,105.176 182.794,105.366 182.721 C 105.557 182.648,105.713 182.429,105.713 182.235 C 105.713 182.040,105.872 181.881,106.066 181.881 C 106.261 181.881,106.479 181.725,106.552 181.535 C 106.625 181.344,106.830 181.189,107.007 181.189 C 107.184 181.189,107.328 181.044,107.328 180.867 C 107.328 180.690,107.484 180.486,107.675 180.413 C 107.865 180.340,108.021 180.121,108.021 179.926 C 108.021 179.732,108.180 179.573,108.374 179.573 C 108.569 179.573,108.787 179.417,108.861 179.227 C 108.934 179.036,109.138 178.881,109.315 178.881 C 109.492 178.881,109.636 178.736,109.636 178.559 C 109.636 178.382,109.792 178.178,109.983 178.105 C 110.173 178.032,110.329 177.813,110.329 177.618 C 110.329 177.424,110.488 177.265,110.682 177.265 C 110.877 177.265,111.096 177.109,111.169 176.919 C 111.242 176.728,111.446 176.572,111.623 176.572 C 111.800 176.572,111.945 176.428,111.945 176.251 C 111.945 176.074,112.100 175.870,112.291 175.797 C 112.481 175.723,112.637 175.505,112.637 175.310 C 112.637 175.116,112.796 174.957,112.991 174.957 C 113.185 174.957,113.404 174.801,113.477 174.611 C 113.550 174.420,113.754 174.264,113.931 174.264 C 114.108 174.264,114.253 174.120,114.253 173.943 C 114.253 173.766,114.409 173.561,114.599 173.488 C 114.789 173.415,114.945 173.209,114.945 173.029 C 114.945 172.849,115.163 172.645,115.430 172.576 C 115.697 172.506,115.846 172.338,115.763 172.202 C 115.674 172.058,115.808 171.956,116.086 171.956 C 116.347 171.956,116.561 171.811,116.561 171.635 C 116.561 171.458,116.717 171.253,116.907 171.180 C 117.098 171.107,117.253 170.900,117.253 170.721 C 117.253 170.541,117.472 170.337,117.738 170.267 C 118.005 170.198,118.155 170.030,118.071 169.894 C 117.982 169.750,118.116 169.648,118.394 169.648 C 118.655 169.648,118.869 169.503,118.869 169.326 C 118.869 169.150,119.025 168.945,119.215 168.872 C 119.406 168.799,119.561 168.592,119.561 168.413 C 119.561 168.233,119.780 168.029,120.046 167.959 C 120.313 167.890,120.463 167.722,120.379 167.586 C 120.290 167.442,120.424 167.340,120.702 167.340 C 120.963 167.340,121.177 167.195,121.177 167.018 C 121.177 166.842,121.333 166.637,121.523 166.564 C 121.714 166.491,121.870 166.284,121.870 166.105 C 121.870 165.925,122.088 165.721,122.354 165.651 C 122.621 165.581,122.771 165.414,122.687 165.278 C 122.598 165.134,122.732 165.032,123.010 165.032 C 123.271 165.032,123.485 164.887,123.485 164.710 C 123.485 164.533,123.641 164.329,123.832 164.256 C 124.022 164.183,124.178 163.976,124.178 163.796 C 124.178 163.617,124.396 163.413,124.663 163.343 C 124.930 163.273,125.079 163.106,124.995 162.970 C 124.906 162.826,125.040 162.724,125.318 162.724 C 125.580 162.724,125.793 162.579,125.793 162.402 C 125.793 162.225,125.949 162.021,126.140 161.948 C 126.330 161.875,126.486 161.668,126.486 161.488 C 126.486 161.309,126.704 161.105,126.971 161.035 C 127.238 160.965,127.387 160.797,127.303 160.662 C 127.214 160.518,127.348 160.415,127.626 160.415 C 127.888 160.415,128.102 160.271,128.102 160.094 C 128.102 159.917,128.257 159.713,128.448 159.640 C 128.638 159.566,128.794 159.360,128.794 159.180 C 128.794 159.001,129.012 158.797,129.279 158.727 C 129.546 158.657,129.695 158.489,129.611 158.354 C 129.522 158.210,129.656 158.107,129.934 158.107 C 130.196 158.107,130.410 157.963,130.410 157.786 C 130.410 157.609,130.565 157.404,130.756 157.331 C 130.946 157.258,131.102 157.052,131.102 156.872 C 131.102 156.692,131.320 156.488,131.587 156.419 C 131.854 156.349,132.003 156.181,131.920 156.046 C 131.831 155.901,131.965 155.799,132.243 155.799 C 132.504 155.799,132.718 155.655,132.718 155.478 C 132.718 155.301,132.874 155.096,133.064 155.023 C 133.254 154.950,133.410 154.743,133.410 154.564 C 133.410 154.384,133.628 154.180,133.895 154.111 C 134.162 154.041,134.312 153.873,134.228 153.737 C 134.139 153.593,134.273 153.491,134.551 153.491 C 134.812 153.491,135.026 153.346,135.026 153.170 C 135.026 152.993,135.182 152.788,135.372 152.715 C 135.563 152.642,135.718 152.435,135.718 152.256 C 135.718 152.076,135.937 151.872,136.203 151.802 C 136.470 151.733,136.620 151.565,136.536 151.429 C 136.447 151.285,136.581 151.183,136.859 151.183 C 137.120 151.183,137.334 151.038,137.334 150.861 C 137.334 150.685,137.490 150.480,137.680 150.407 C 137.871 150.334,138.027 150.127,138.027 149.948 C 138.027 149.768,138.245 149.564,138.511 149.494 C 138.778 149.424,138.928 149.257,138.844 149.121 C 138.755 148.977,138.889 148.875,139.167 148.875 C 139.428 148.875,139.642 148.730,139.642 148.553 C 139.642 148.376,139.798 148.172,139.988 148.099 C 140.179 148.026,140.335 147.819,140.335 147.639 C 140.335 147.460,140.553 147.256,140.820 147.186 C 141.087 147.116,141.236 146.949,141.152 146.813 C 141.063 146.669,141.197 146.567,141.475 146.567 C 141.737 146.567,141.950 146.422,141.950 146.245 C 141.950 146.068,142.106 145.864,142.297 145.791 C 142.487 145.718,142.643 145.511,142.643 145.331 C 142.643 145.152,142.861 144.948,143.128 144.878 C 143.395 144.808,143.544 144.641,143.460 144.505 C 143.371 144.361,143.505 144.259,143.783 144.259 C 144.045 144.259,144.259 144.114,144.259 143.937 C 144.259 143.760,144.414 143.556,144.605 143.483 C 144.795 143.410,144.951 143.203,144.951 143.023 C 144.951 142.844,145.169 142.640,145.436 142.570 C 145.703 142.500,145.852 142.332,145.768 142.197 C 145.679 142.053,145.813 141.950,146.091 141.950 C 146.353 141.950,146.567 141.806,146.567 141.629 C 146.567 141.452,146.722 141.248,146.913 141.174 C 147.103 141.101,147.259 140.895,147.259 140.715 C 147.259 140.535,147.477 140.331,147.744 140.262 C 148.011 140.192,148.160 140.024,148.077 139.889 C 147.987 139.744,148.121 139.642,148.400 139.642 C 148.661 139.642,148.875 139.498,148.875 139.321 C 148.875 139.144,149.031 138.939,149.221 138.866 C 149.411 138.793,149.567 138.587,149.567 138.407 C 149.567 138.227,149.785 138.023,150.052 137.954 C 150.319 137.884,150.469 137.716,150.385 137.580 C 150.296 137.436,150.430 137.334,150.708 137.334 C 150.969 137.334,151.183 137.189,151.183 137.013 C 151.183 136.836,151.339 136.631,151.529 136.558 C 151.720 136.485,151.875 136.278,151.875 136.099 C 151.875 135.919,152.094 135.715,152.360 135.645 C 152.627 135.576,152.777 135.408,152.693 135.272 C 152.604 135.128,152.738 135.026,153.016 135.026 C 153.277 135.026,153.491 134.881,153.491 134.704 C 153.491 134.528,153.647 134.323,153.837 134.250 C 154.028 134.177,154.183 133.970,154.183 133.791 C 154.183 133.611,154.402 133.407,154.668 133.337 C 154.935 133.268,155.085 133.100,155.001 132.964 C 154.912 132.820,155.046 132.718,155.324 132.718 C 155.585 132.718,155.799 132.573,155.799 132.396 C 155.799 132.219,155.955 132.015,156.145 131.942 C 156.336 131.869,156.492 131.662,156.492 131.483 C 156.492 131.303,156.710 131.099,156.976 131.029 C 157.243 130.959,157.393 130.792,157.309 130.656 C 157.220 130.512,157.354 130.410,157.632 130.410 C 157.893 130.410,158.107 130.265,158.107 130.088 C 158.107 129.911,158.263 129.707,158.454 129.634 C 158.644 129.561,158.800 129.354,158.800 129.174 C 158.800 128.995,159.018 128.791,159.285 128.721 C 159.552 128.651,159.701 128.484,159.617 128.348 C 159.528 128.204,159.662 128.102,159.940 128.102 C 160.202 128.102,160.415 127.957,160.415 127.780 C 160.415 127.603,160.571 127.399,160.762 127.326 C 160.952 127.253,161.108 127.046,161.108 126.866 C 161.108 126.687,161.326 126.483,161.593 126.413 C 161.860 126.343,162.009 126.175,161.925 126.040 C 161.836 125.896,161.970 125.793,162.248 125.793 C 162.510 125.793,162.724 125.649,162.724 125.472 C 162.724 125.295,162.879 125.091,163.070 125.018 C 163.260 124.944,163.416 124.738,163.416 124.558 C 163.416 124.379,163.634 124.175,163.901 124.105 C 164.168 124.035,164.317 123.867,164.233 123.732 C 164.144 123.588,164.278 123.485,164.556 123.485 C 164.818 123.485,165.032 123.341,165.032 123.164 C 165.032 122.987,165.188 122.782,165.378 122.709 C 165.568 122.636,165.724 122.430,165.724 122.250 C 165.724 122.070,165.942 121.866,166.209 121.797 C 166.476 121.727,166.625 121.559,166.542 121.423 C 166.453 121.279,166.587 121.177,166.865 121.177 C 167.126 121.177,167.340 121.032,167.340 120.856 C 167.340 120.679,167.496 120.474,167.686 120.401 C 167.877 120.328,168.032 120.121,168.032 119.942 C 168.032 119.762,168.250 119.558,168.517 119.489 C 168.784 119.419,168.934 119.251,168.850 119.115 C 168.761 118.971,168.895 118.869,169.173 118.869 C 169.434 118.869,169.648 118.724,169.648 118.547 C 169.648 118.371,169.804 118.166,169.994 118.093 C 170.185 118.020,170.340 117.813,170.340 117.634 C 170.340 117.454,170.559 117.250,170.825 117.180 C 171.092 117.111,171.242 116.943,171.158 116.807 C 171.069 116.663,171.203 116.561,171.481 116.561 C 171.742 116.561,171.956 116.416,171.956 116.239 C 171.956 116.063,172.112 115.858,172.302 115.785 C 172.493 115.712,172.649 115.505,172.649 115.326 C 172.649 115.146,172.867 114.942,173.133 114.872 C 173.400 114.802,173.550 114.635,173.466 114.499 C 173.377 114.355,173.511 114.253,173.789 114.253 C 174.050 114.253,174.264 114.108,174.264 113.931 C 174.264 113.754,174.420 113.550,174.611 113.477 C 174.801 113.404,174.957 113.197,174.957 113.017 C 174.957 112.838,175.175 112.634,175.442 112.564 C 175.709 112.494,175.858 112.327,175.774 112.191 C 175.685 112.047,175.819 111.945,176.097 111.945 C 176.359 111.945,176.572 111.800,176.572 111.623 C 176.572 111.446,176.728 111.242,176.919 111.169 C 177.109 111.096,177.265 110.889,177.265 110.709 C 177.265 110.530,177.483 110.326,177.750 110.256 C 178.017 110.186,178.166 110.018,178.082 109.883 C 177.993 109.739,178.127 109.636,178.405 109.636 C 178.667 109.636,178.881 109.492,178.881 109.315 C 178.881 109.138,179.036 108.934,179.227 108.861 C 179.417 108.787,179.573 108.581,179.573 108.401 C 179.573 108.222,179.791 108.018,180.058 107.948 C 180.325 107.878,180.474 107.710,180.390 107.575 C 180.301 107.431,180.435 107.328,180.713 107.328 C 180.975 107.328,181.189 107.184,181.189 107.007 C 181.189 106.830,181.344 106.625,181.535 106.552 C 181.725 106.479,181.881 106.273,181.881 106.093 C 181.881 105.913,182.099 105.709,182.366 105.640 C 182.633 105.570,182.782 105.402,182.699 105.267 C 182.610 105.122,182.744 105.020,183.022 105.020 C 183.283 105.020,183.497 104.876,183.497 104.699 C 183.497 104.522,183.653 104.317,183.843 104.244 C 184.033 104.171,184.189 103.964,184.189 103.785 C 184.189 103.605,184.407 103.401,184.674 103.332 C 184.941 103.262,185.091 103.094,185.007 102.958 C 184.918 102.814,185.052 102.712,185.330 102.712 C 185.591 102.712,185.805 102.567,185.805 102.391 C 185.805 102.214,185.961 102.009,186.151 101.936 C 186.342 101.863,186.497 101.656,186.497 101.477 C 186.497 101.297,186.716 101.093,186.982 101.023 C 187.249 100.954,187.399 100.786,187.315 100.650 C 187.226 100.506,187.360 100.404,187.638 100.404 C 187.899 100.404,188.113 100.259,188.113 100.082 C 188.113 99.906,188.269 99.701,188.459 99.628 C 188.650 99.555,188.806 99.348,188.806 99.169 C 188.806 98.989,189.024 98.785,189.290 98.715 C 189.557 98.645,189.707 98.478,189.623 98.342 C 189.534 98.198,189.668 98.096,189.946 98.096 C 190.207 98.096,190.421 97.951,190.421 97.774 C 190.421 97.597,190.577 97.393,190.767 97.320 C 190.958 97.247,191.114 97.040,191.114 96.860 C 191.114 96.681,191.332 96.477,191.599 96.407 C 191.866 96.337,192.015 96.170,191.931 96.034 C 191.842 95.890,191.976 95.788,192.254 95.788 C 192.516 95.788,192.729 95.643,192.729 95.466 C 192.729 95.289,192.885 95.085,193.076 95.012 C 193.266 94.939,193.422 94.732,193.422 94.552 C 193.422 94.373,193.640 94.169,193.907 94.099 C 194.174 94.029,194.323 93.862,194.239 93.726 C 194.150 93.582,194.284 93.480,194.562 93.480 C 194.824 93.480,195.038 93.335,195.038 93.158 C 195.038 92.981,195.193 92.777,195.384 92.704 C 195.574 92.631,195.730 92.424,195.730 92.244 C 195.730 92.065,195.948 91.861,196.215 91.791 C 196.482 91.721,196.631 91.553,196.547 91.418 C 196.458 91.274,196.592 91.171,196.870 91.171 C 197.132 91.171,197.346 91.027,197.346 90.850 C 197.346 90.673,197.501 90.469,197.692 90.395 C 197.882 90.322,198.038 90.116,198.038 89.936 C 198.038 89.756,198.256 89.552,198.523 89.483 C 198.790 89.413,198.939 89.245,198.856 89.110 C 198.766 88.965,198.900 88.863,199.179 88.863 C 199.451 88.863,199.654 88.713,199.654 88.510 C 199.654 88.315,199.810 88.097,200.000 88.023 C 200.190 87.950,200.346 87.746,200.346 87.569 C 200.346 87.392,200.502 87.248,200.692 87.248 C 200.883 87.248,201.039 87.092,201.039 86.901 C 201.039 86.709,201.244 86.555,201.500 86.555 C 201.761 86.555,201.962 86.401,201.962 86.202 C 201.962 86.007,202.118 85.788,202.308 85.715 C 202.499 85.642,202.654 85.438,202.654 85.261 C 202.654 85.084,202.810 84.939,203.001 84.939 C 203.191 84.939,203.347 84.784,203.347 84.593 C 203.347 84.401,203.552 84.247,203.808 84.247 C 204.069 84.247,204.270 84.093,204.270 83.894 C 204.270 83.699,204.426 83.480,204.616 83.407 C 204.807 83.334,204.962 83.130,204.962 82.953 C 204.962 82.776,205.118 82.631,205.309 82.631 C 205.499 82.631,205.655 82.475,205.655 82.285 C 205.655 82.093,205.860 81.939,206.117 81.939 C 206.377 81.939,206.578 81.785,206.578 81.585 C 206.578 81.391,206.734 81.172,206.924 81.099 C 207.115 81.026,207.271 80.822,207.271 80.645 C 207.271 80.468,207.426 80.323,207.617 80.323 C 207.807 80.323,207.963 80.167,207.963 79.977 C 207.963 79.785,208.168 79.631,208.425 79.631 C 208.685 79.631,208.886 79.477,208.886 79.277 C 208.886 79.083,209.042 78.864,209.233 78.791 C 209.423 78.718,209.579 78.513,209.579 78.337 C 209.579 78.160,209.735 78.015,209.925 78.015 C 210.115 78.015,210.271 77.859,210.271 77.669 C 210.271 77.476,210.476 77.323,210.733 77.323 C 210.993 77.323,211.194 77.169,211.194 76.969 C 211.194 76.775,211.350 76.556,211.541 76.483 C 211.731 76.410,211.887 76.205,211.887 76.028 C 211.887 75.852,212.043 75.707,212.233 75.707 C 212.424 75.707,212.579 75.551,212.579 75.361 C 212.579 75.168,212.785 75.014,213.041 75.014 C 213.302 75.014,213.503 74.861,213.503 74.661 C 213.503 74.467,213.658 74.248,213.849 74.175 C 214.039 74.102,214.195 73.897,214.195 73.720 C 214.195 73.543,214.351 73.399,214.541 73.399 C 214.732 73.399,214.887 73.243,214.887 73.053 C 214.887 72.860,215.093 72.706,215.349 72.706 C 215.610 72.706,215.811 72.552,215.811 72.353 C 215.811 72.158,215.967 71.940,216.157 71.867 C 216.347 71.793,216.503 71.589,216.503 71.412 C 216.503 71.235,216.659 71.091,216.849 71.091 C 217.080 71.091,217.196 70.860,217.196 70.398 L 217.196 69.706 207.518 69.706 C 198.985 69.706,197.832 69.748,197.766 70.062" stroke="none" fill="#dcdcdc" fill-rule="evenodd"/>
  </g>
</svg>